<svg width="730" height="322" viewBox="0 0 730 322" fill="none" xmlns="http://www.w3.org/2000/svg">
<rect width="730" height="322" rx="25" fill="white"/>
<rect x="69" y="76" width="631" height="1" fill="#F3F3F5"/>
<rect x="69" y="113" width="631" height="1" fill="#F3F3F5"/>
<rect x="69" y="150" width="631" height="1" fill="#F3F3F5"/>
<rect x="69" y="187" width="631" height="1" fill="#F3F3F5"/>
<rect x="69" y="224" width="631" height="1" fill="#F3F3F5"/>
<rect x="69" y="261" width="631" height="1" fill="#F3F3F5"/>
<path d="M105.363 291H102.445V281.545H105.492C106.409 281.545 107.194 281.735 107.846 282.113C108.499 282.489 108.999 283.029 109.347 283.734C109.695 284.435 109.868 285.276 109.868 286.254C109.868 287.239 109.693 288.087 109.342 288.798C108.991 289.506 108.48 290.051 107.81 290.432C107.139 290.811 106.323 291 105.363 291ZM103.59 289.984H105.289C106.071 289.984 106.718 289.834 107.232 289.532C107.746 289.23 108.13 288.801 108.382 288.244C108.634 287.687 108.761 287.024 108.761 286.254C108.761 285.491 108.636 284.834 108.387 284.283C108.137 283.729 107.765 283.304 107.269 283.009C106.774 282.71 106.157 282.561 105.418 282.561H103.59V289.984ZM114.522 291.148C113.882 291.148 113.32 290.995 112.837 290.691C112.357 290.386 111.981 289.96 111.71 289.412C111.443 288.864 111.309 288.224 111.309 287.491C111.309 286.753 111.443 286.108 111.71 285.557C111.981 285.006 112.357 284.578 112.837 284.274C113.32 283.969 113.882 283.817 114.522 283.817C115.162 283.817 115.722 283.969 116.202 284.274C116.685 284.578 117.061 285.006 117.329 285.557C117.6 286.108 117.735 286.753 117.735 287.491C117.735 288.224 117.6 288.864 117.329 289.412C117.061 289.96 116.685 290.386 116.202 290.691C115.722 290.995 115.162 291.148 114.522 291.148ZM114.522 290.169C115.008 290.169 115.408 290.044 115.722 289.795C116.036 289.546 116.268 289.218 116.419 288.812C116.57 288.406 116.645 287.965 116.645 287.491C116.645 287.018 116.57 286.576 116.419 286.167C116.268 285.757 116.036 285.426 115.722 285.174C115.408 284.922 115.008 284.795 114.522 284.795C114.036 284.795 113.636 284.922 113.322 285.174C113.008 285.426 112.775 285.757 112.625 286.167C112.474 286.576 112.398 287.018 112.398 287.491C112.398 287.965 112.474 288.406 112.625 288.812C112.775 289.218 113.008 289.546 113.322 289.795C113.636 290.044 114.036 290.169 114.522 290.169ZM119.398 291V283.909H120.451V285.017H120.543C120.691 284.638 120.929 284.345 121.258 284.135C121.588 283.923 121.983 283.817 122.445 283.817C122.913 283.817 123.302 283.923 123.613 284.135C123.927 284.345 124.171 284.638 124.347 285.017H124.421C124.602 284.651 124.875 284.36 125.238 284.145C125.601 283.926 126.037 283.817 126.544 283.817C127.178 283.817 127.697 284.015 128.1 284.412C128.503 284.806 128.705 285.42 128.705 286.254V291H127.615V286.254C127.615 285.731 127.472 285.357 127.186 285.132C126.9 284.908 126.563 284.795 126.175 284.795C125.676 284.795 125.29 284.946 125.016 285.248C124.742 285.546 124.605 285.925 124.605 286.384V291H123.497V286.143C123.497 285.74 123.367 285.416 123.105 285.169C122.843 284.92 122.506 284.795 122.094 284.795C121.811 284.795 121.546 284.871 121.3 285.022C121.057 285.172 120.86 285.382 120.709 285.65C120.561 285.914 120.488 286.22 120.488 286.568V291H119.398Z" fill="#232323"/>
<path d="M195.41 291V281.545H196.554V289.984H200.949V291H195.41ZM207.043 288.101V283.909H208.133V291H207.043V289.8H206.969C206.803 290.16 206.544 290.466 206.194 290.718C205.843 290.968 205.4 291.092 204.864 291.092C204.421 291.092 204.027 290.995 203.682 290.801C203.338 290.605 203.067 290.309 202.87 289.915C202.673 289.518 202.574 289.018 202.574 288.415V283.909H203.664V288.341C203.664 288.858 203.808 289.27 204.098 289.578C204.39 289.886 204.763 290.04 205.215 290.04C205.486 290.04 205.761 289.971 206.041 289.832C206.324 289.694 206.561 289.481 206.752 289.195C206.946 288.909 207.043 288.544 207.043 288.101ZM211.218 286.734V291H210.128V283.909H211.181V285.017H211.273C211.439 284.657 211.691 284.368 212.03 284.149C212.369 283.928 212.806 283.817 213.341 283.817C213.821 283.817 214.241 283.915 214.601 284.112C214.961 284.306 215.242 284.602 215.442 284.999C215.642 285.393 215.742 285.891 215.742 286.494V291H214.652V286.568C214.652 286.011 214.508 285.577 214.218 285.266C213.929 284.952 213.532 284.795 213.027 284.795C212.679 284.795 212.369 284.871 212.095 285.022C211.824 285.172 211.61 285.393 211.453 285.682C211.296 285.971 211.218 286.322 211.218 286.734Z" fill="#232323"/>
<path d="M284.281 281.545H285.648L288.861 289.393H288.971L292.185 281.545H293.551V291H292.48V283.817H292.388L289.433 291H288.399L285.444 283.817H285.352V291H284.281V281.545ZM297.785 291.166C297.336 291.166 296.928 291.082 296.562 290.912C296.196 290.74 295.905 290.492 295.69 290.169C295.474 289.843 295.366 289.449 295.366 288.987C295.366 288.581 295.446 288.252 295.606 287.999C295.767 287.744 295.98 287.544 296.248 287.399C296.516 287.254 296.811 287.147 297.135 287.076C297.461 287.002 297.789 286.944 298.118 286.901C298.549 286.845 298.898 286.804 299.166 286.776C299.437 286.745 299.634 286.694 299.757 286.624C299.883 286.553 299.946 286.43 299.946 286.254V286.217C299.946 285.762 299.821 285.408 299.572 285.156C299.326 284.903 298.952 284.777 298.45 284.777C297.93 284.777 297.522 284.891 297.227 285.119C296.931 285.346 296.724 285.589 296.604 285.848L295.57 285.479C295.754 285.048 296 284.712 296.308 284.472C296.619 284.229 296.958 284.06 297.324 283.964C297.693 283.866 298.056 283.817 298.413 283.817C298.641 283.817 298.903 283.844 299.198 283.9C299.497 283.952 299.784 284.061 300.061 284.228C300.341 284.394 300.574 284.645 300.758 284.98C300.943 285.316 301.035 285.765 301.035 286.328V291H299.946V290.04H299.891C299.817 290.194 299.694 290.358 299.521 290.534C299.349 290.709 299.12 290.858 298.833 290.982C298.547 291.105 298.198 291.166 297.785 291.166ZM297.952 290.188C298.383 290.188 298.746 290.103 299.041 289.934C299.34 289.764 299.564 289.546 299.715 289.278C299.869 289.01 299.946 288.729 299.946 288.433V287.436C299.9 287.491 299.798 287.542 299.641 287.588C299.487 287.632 299.309 287.67 299.106 287.704C298.906 287.735 298.71 287.762 298.519 287.787C298.332 287.808 298.179 287.827 298.062 287.842C297.779 287.879 297.515 287.939 297.268 288.022C297.025 288.102 296.828 288.224 296.678 288.387C296.53 288.547 296.456 288.766 296.456 289.043C296.456 289.421 296.596 289.707 296.876 289.901C297.159 290.092 297.518 290.188 297.952 290.188ZM303.024 291V283.909H304.077V284.98H304.15C304.28 284.629 304.514 284.345 304.852 284.126C305.191 283.908 305.572 283.798 305.997 283.798C306.077 283.798 306.177 283.8 306.297 283.803C306.417 283.806 306.508 283.811 306.569 283.817V284.925C306.533 284.915 306.448 284.902 306.316 284.883C306.186 284.862 306.049 284.851 305.905 284.851C305.56 284.851 305.252 284.923 304.981 285.068C304.714 285.209 304.501 285.406 304.344 285.659C304.19 285.908 304.114 286.193 304.114 286.513V291H303.024Z" fill="#232323"/>
<path d="M372.618 281.545H373.985L377.198 289.393H377.308L380.521 281.545H381.888V291H380.817V283.817H380.725L377.77 291H376.736L373.781 283.817H373.689V291H372.618V281.545ZM384.036 291V283.909H385.125V291H384.036ZM384.59 282.727C384.377 282.727 384.194 282.655 384.04 282.51C383.89 282.366 383.814 282.192 383.814 281.989C383.814 281.786 383.89 281.612 384.04 281.467C384.194 281.322 384.377 281.25 384.59 281.25C384.802 281.25 384.984 281.322 385.134 281.467C385.288 281.612 385.365 281.786 385.365 281.989C385.365 282.192 385.288 282.366 385.134 282.51C384.984 282.655 384.802 282.727 384.59 282.727ZM390.094 291.148C389.41 291.148 388.821 290.997 388.326 290.695C387.833 290.391 387.453 289.966 387.185 289.421C386.921 288.873 386.788 288.236 386.788 287.51C386.788 286.784 386.921 286.143 387.185 285.589C387.453 285.032 387.825 284.598 388.303 284.288C388.783 283.974 389.343 283.817 389.983 283.817C390.352 283.817 390.717 283.878 391.077 284.001C391.437 284.125 391.765 284.325 392.06 284.602C392.356 284.875 392.591 285.239 392.767 285.691C392.942 286.143 393.03 286.701 393.03 287.362V287.824H387.564V286.882H391.922C391.922 286.482 391.842 286.125 391.682 285.811C391.525 285.497 391.3 285.249 391.008 285.068C390.718 284.886 390.377 284.795 389.983 284.795C389.549 284.795 389.173 284.903 388.856 285.119C388.543 285.331 388.301 285.608 388.132 285.95C387.962 286.291 387.878 286.657 387.878 287.048V287.676C387.878 288.212 387.97 288.666 388.155 289.038C388.343 289.407 388.603 289.689 388.935 289.883C389.267 290.074 389.654 290.169 390.094 290.169C390.38 290.169 390.638 290.129 390.869 290.049C391.103 289.966 391.305 289.843 391.474 289.68C391.643 289.513 391.774 289.307 391.866 289.061L392.919 289.357C392.808 289.714 392.622 290.027 392.36 290.298C392.099 290.566 391.776 290.775 391.391 290.926C391.006 291.074 390.574 291.148 390.094 291.148ZM394.687 291V283.909H395.74V284.98H395.814C395.943 284.629 396.177 284.345 396.515 284.126C396.854 283.908 397.235 283.798 397.66 283.798C397.74 283.798 397.84 283.8 397.96 283.803C398.08 283.806 398.171 283.811 398.233 283.817V284.925C398.196 284.915 398.111 284.902 397.979 284.883C397.849 284.862 397.712 284.851 397.568 284.851C397.223 284.851 396.915 284.923 396.644 285.068C396.377 285.209 396.164 285.406 396.007 285.659C395.854 285.908 395.777 286.193 395.777 286.513V291H394.687Z" fill="#232323"/>
<path d="M472.958 281.545H474.103V288.304C474.103 288.907 473.992 289.42 473.771 289.841C473.549 290.263 473.237 290.583 472.833 290.801C472.43 291.02 471.955 291.129 471.407 291.129C470.89 291.129 470.43 291.035 470.027 290.848C469.623 290.657 469.306 290.386 469.076 290.035C468.845 289.684 468.729 289.267 468.729 288.784H469.856C469.856 289.052 469.922 289.286 470.054 289.486C470.19 289.683 470.374 289.837 470.608 289.947C470.842 290.058 471.108 290.114 471.407 290.114C471.736 290.114 472.016 290.044 472.247 289.906C472.478 289.767 472.653 289.564 472.773 289.297C472.896 289.026 472.958 288.695 472.958 288.304V281.545ZM480.718 288.101V283.909H481.808V291H480.718V289.8H480.644C480.478 290.16 480.22 290.466 479.869 290.718C479.518 290.968 479.075 291.092 478.539 291.092C478.096 291.092 477.702 290.995 477.358 290.801C477.013 290.605 476.742 290.309 476.545 289.915C476.348 289.518 476.25 289.018 476.25 288.415V283.909H477.339V288.341C477.339 288.858 477.484 289.27 477.773 289.578C478.065 289.886 478.438 290.04 478.89 290.04C479.161 290.04 479.437 289.971 479.717 289.832C480 289.694 480.237 289.481 480.428 289.195C480.621 288.909 480.718 288.544 480.718 288.101Z" fill="#232323"/>
<path d="M556.814 281.545L559.621 289.504H559.732L562.539 281.545H563.739L560.268 291H559.086L555.614 281.545H556.814ZM565.064 291V283.909H566.154V291H565.064ZM565.618 282.727C565.406 282.727 565.223 282.655 565.069 282.51C564.918 282.366 564.842 282.192 564.842 281.989C564.842 281.786 564.918 281.612 565.069 281.467C565.223 281.322 565.406 281.25 565.618 281.25C565.83 281.25 566.012 281.322 566.163 281.467C566.317 281.612 566.394 281.786 566.394 281.989C566.394 282.192 566.317 282.366 566.163 282.51C566.012 282.655 565.83 282.727 565.618 282.727ZM571.122 291.148C570.439 291.148 569.849 290.997 569.354 290.695C568.861 290.391 568.481 289.966 568.214 289.421C567.949 288.873 567.817 288.236 567.817 287.51C567.817 286.784 567.949 286.143 568.214 285.589C568.481 285.032 568.854 284.598 569.331 284.288C569.811 283.974 570.371 283.817 571.011 283.817C571.381 283.817 571.745 283.878 572.105 284.001C572.465 284.125 572.793 284.325 573.089 284.602C573.384 284.875 573.62 285.239 573.795 285.691C573.97 286.143 574.058 286.701 574.058 287.362V287.824H568.592V286.882H572.95C572.95 286.482 572.87 286.125 572.71 285.811C572.553 285.497 572.328 285.249 572.036 285.068C571.747 284.886 571.405 284.795 571.011 284.795C570.577 284.795 570.202 284.903 569.885 285.119C569.571 285.331 569.329 285.608 569.16 285.95C568.991 286.291 568.906 286.657 568.906 287.048V287.676C568.906 288.212 568.998 288.666 569.183 289.038C569.371 289.407 569.631 289.689 569.963 289.883C570.296 290.074 570.682 290.169 571.122 290.169C571.408 290.169 571.667 290.129 571.898 290.049C572.131 289.966 572.333 289.843 572.502 289.68C572.672 289.513 572.802 289.307 572.895 289.061L573.947 289.357C573.837 289.714 573.65 290.027 573.389 290.298C573.127 290.566 572.804 290.775 572.419 290.926C572.035 291.074 571.602 291.148 571.122 291.148Z" fill="#232323"/>
<path d="M653.508 283.909C653.452 283.441 653.228 283.078 652.834 282.82C652.44 282.561 651.957 282.432 651.384 282.432C650.966 282.432 650.599 282.5 650.285 282.635C649.975 282.77 649.731 282.957 649.556 283.194C649.384 283.431 649.297 283.7 649.297 284.001C649.297 284.254 649.358 284.471 649.478 284.652C649.601 284.831 649.758 284.98 649.948 285.1C650.139 285.217 650.339 285.314 650.549 285.391C650.758 285.465 650.95 285.525 651.126 285.571L652.086 285.83C652.332 285.894 652.606 285.983 652.908 286.097C653.212 286.211 653.503 286.367 653.78 286.564C654.06 286.757 654.291 287.007 654.473 287.311C654.654 287.616 654.745 287.99 654.745 288.433C654.745 288.944 654.611 289.406 654.343 289.818C654.079 290.231 653.691 290.558 653.18 290.801C652.672 291.045 652.055 291.166 651.329 291.166C650.652 291.166 650.065 291.057 649.57 290.838C649.077 290.62 648.69 290.315 648.407 289.924C648.126 289.533 647.968 289.08 647.931 288.562H649.113C649.144 288.92 649.264 289.215 649.473 289.449C649.685 289.68 649.953 289.852 650.276 289.966C650.602 290.077 650.953 290.132 651.329 290.132C651.766 290.132 652.158 290.061 652.506 289.92C652.854 289.775 653.129 289.575 653.332 289.32C653.535 289.061 653.637 288.759 653.637 288.415C653.637 288.101 653.549 287.845 653.374 287.648C653.198 287.451 652.968 287.291 652.681 287.168C652.395 287.045 652.086 286.937 651.753 286.845L650.59 286.513C649.851 286.3 649.267 285.997 648.836 285.603C648.405 285.209 648.19 284.694 648.19 284.057C648.19 283.527 648.333 283.066 648.619 282.672C648.908 282.275 649.296 281.967 649.782 281.749C650.272 281.527 650.818 281.416 651.421 281.416C652.03 281.416 652.572 281.525 653.046 281.744C653.52 281.959 653.896 282.255 654.172 282.63C654.453 283.006 654.6 283.432 654.616 283.909H653.508ZM658.566 291.166C658.117 291.166 657.709 291.082 657.343 290.912C656.977 290.74 656.686 290.492 656.47 290.169C656.255 289.843 656.147 289.449 656.147 288.987C656.147 288.581 656.227 288.252 656.387 287.999C656.547 287.744 656.761 287.544 657.029 287.399C657.297 287.254 657.592 287.147 657.915 287.076C658.242 287.002 658.569 286.944 658.899 286.901C659.329 286.845 659.679 286.804 659.947 286.776C660.217 286.745 660.414 286.694 660.537 286.624C660.664 286.553 660.727 286.43 660.727 286.254V286.217C660.727 285.762 660.602 285.408 660.353 285.156C660.107 284.903 659.733 284.777 659.231 284.777C658.711 284.777 658.303 284.891 658.008 285.119C657.712 285.346 657.504 285.589 657.384 285.848L656.35 285.479C656.535 285.048 656.781 284.712 657.089 284.472C657.4 284.229 657.738 284.06 658.105 283.964C658.474 283.866 658.837 283.817 659.194 283.817C659.422 283.817 659.683 283.844 659.979 283.9C660.277 283.952 660.565 284.061 660.842 284.228C661.122 284.394 661.355 284.645 661.539 284.98C661.724 285.316 661.816 285.765 661.816 286.328V291H660.727V290.04H660.671C660.597 290.194 660.474 290.358 660.302 290.534C660.13 290.709 659.9 290.858 659.614 290.982C659.328 291.105 658.979 291.166 658.566 291.166ZM658.732 290.188C659.163 290.188 659.526 290.103 659.822 289.934C660.12 289.764 660.345 289.546 660.496 289.278C660.65 289.01 660.727 288.729 660.727 288.433V287.436C660.681 287.491 660.579 287.542 660.422 287.588C660.268 287.632 660.09 287.67 659.887 287.704C659.686 287.735 659.491 287.762 659.3 287.787C659.113 287.808 658.96 287.827 658.843 287.842C658.56 287.879 658.295 287.939 658.049 288.022C657.806 288.102 657.609 288.224 657.458 288.387C657.311 288.547 657.237 288.766 657.237 289.043C657.237 289.421 657.377 289.707 657.657 289.901C657.94 290.092 658.298 290.188 658.732 290.188Z" fill="#232323"/>
<path d="M43.1984 81V80.169L46.3192 76.7528C46.6854 76.3527 46.987 76.005 47.224 75.7095C47.461 75.411 47.6364 75.1309 47.7503 74.8693C47.8672 74.6046 47.9257 74.3277 47.9257 74.0384C47.9257 73.706 47.8457 73.4182 47.6856 73.1751C47.5287 72.9319 47.3132 72.7442 47.0393 72.6119C46.7654 72.4795 46.4577 72.4134 46.116 72.4134C45.7529 72.4134 45.4359 72.4888 45.165 72.6396C44.8973 72.7873 44.6895 72.995 44.5418 73.2628C44.3972 73.5305 44.3248 73.8445 44.3248 74.2045H43.2354C43.2354 73.6506 43.3631 73.1643 43.6185 72.7457C43.874 72.3272 44.2217 72.0009 44.6618 71.767C45.105 71.5331 45.6021 71.4162 46.153 71.4162C46.7069 71.4162 47.1978 71.5331 47.6256 71.767C48.0534 72.0009 48.3889 72.3164 48.632 72.7134C48.8751 73.1104 48.9967 73.5521 48.9967 74.0384C48.9967 74.3861 48.9336 74.7262 48.8074 75.0586C48.6843 75.3879 48.4689 75.7557 48.1611 76.1619C47.8564 76.5651 47.4333 77.0575 46.8916 77.6392L44.768 79.9105V79.9844H49.1629V81H43.1984ZM54.0241 81.1293C53.4824 81.1293 52.9946 81.0215 52.5606 80.8061C52.1267 80.5907 51.7789 80.2952 51.5173 79.9197C51.2557 79.5443 51.1126 79.1165 51.088 78.6364H52.1959C52.239 79.0642 52.4329 79.4181 52.7776 79.6982C53.1254 79.9751 53.5409 80.1136 54.0241 80.1136C54.4118 80.1136 54.7565 80.0228 55.0581 79.8413C55.3628 79.6597 55.6014 79.4104 55.7737 79.0934C55.9491 78.7733 56.0368 78.4117 56.0368 78.0085C56.0368 77.5961 55.9461 77.2283 55.7645 76.9052C55.586 76.579 55.3398 76.322 55.0258 76.1342C54.7119 75.9465 54.3534 75.8511 53.9502 75.848C53.6609 75.8449 53.3639 75.8896 53.0592 75.9819C52.7545 76.0711 52.5037 76.1866 52.3067 76.3281L51.2357 76.1989L51.8081 71.5455H56.7201V72.5611H52.7684L52.436 75.3494H52.4914C52.6853 75.1955 52.9284 75.0678 53.2208 74.9663C53.5132 74.8647 53.8179 74.8139 54.1349 74.8139C54.7135 74.8139 55.229 74.9524 55.6814 75.2294C56.1369 75.5033 56.4939 75.8788 56.7524 76.3558C57.014 76.8329 57.1448 77.3776 57.1448 77.9901C57.1448 78.5933 57.0094 79.1319 56.7385 79.6058C56.4708 80.0767 56.1015 80.4491 55.6306 80.723C55.1597 80.9938 54.6242 81.1293 54.0241 81.1293Z" fill="#232323"/>
<path d="M43.9826 118V117.169L47.1033 113.753C47.4696 113.353 47.7712 113.005 48.0082 112.71C48.2451 112.411 48.4206 112.131 48.5344 111.869C48.6514 111.605 48.7099 111.328 48.7099 111.038C48.7099 110.706 48.6299 110.418 48.4698 110.175C48.3129 109.932 48.0974 109.744 47.8235 109.612C47.5496 109.48 47.2418 109.413 46.9002 109.413C46.5371 109.413 46.2201 109.489 45.9492 109.64C45.6815 109.787 45.4737 109.995 45.326 110.263C45.1813 110.531 45.109 110.844 45.109 111.205H44.0195C44.0195 110.651 44.1473 110.164 44.4027 109.746C44.6581 109.327 45.0059 109.001 45.446 108.767C45.8892 108.533 46.3862 108.416 46.9371 108.416C47.4911 108.416 47.982 108.533 48.4098 108.767C48.8376 109.001 49.1731 109.316 49.4162 109.713C49.6593 110.11 49.7809 110.552 49.7809 111.038C49.7809 111.386 49.7178 111.726 49.5916 112.059C49.4685 112.388 49.2531 112.756 48.9453 113.162C48.6406 113.565 48.2174 114.058 47.6758 114.639L45.5522 116.911V116.984H49.9471V118H43.9826ZM54.9375 118.129C54.242 118.129 53.6495 117.94 53.1602 117.561C52.6708 117.18 52.2969 116.627 52.0384 115.904C51.7798 115.178 51.6506 114.301 51.6506 113.273C51.6506 112.251 51.7798 111.378 52.0384 110.655C52.3 109.929 52.6754 109.375 53.1648 108.993C53.6572 108.609 54.2481 108.416 54.9375 108.416C55.6269 108.416 56.2163 108.609 56.7056 108.993C57.198 109.375 57.5735 109.929 57.832 110.655C58.0936 111.378 58.2244 112.251 58.2244 113.273C58.2244 114.301 58.0952 115.178 57.8366 115.904C57.5781 116.627 57.2042 117.18 56.7148 117.561C56.2255 117.94 55.633 118.129 54.9375 118.129ZM54.9375 117.114C55.6269 117.114 56.1624 116.781 56.544 116.116C56.9257 115.452 57.1165 114.504 57.1165 113.273C57.1165 112.454 57.0288 111.757 56.8533 111.181C56.681 110.606 56.4317 110.167 56.1055 109.866C55.7823 109.564 55.393 109.413 54.9375 109.413C54.2543 109.413 53.7203 109.75 53.3356 110.424C52.9509 111.095 52.7585 112.045 52.7585 113.273C52.7585 114.091 52.8447 114.787 53.017 115.359C53.1894 115.932 53.4371 116.367 53.7603 116.666C54.0865 116.964 54.4789 117.114 54.9375 117.114Z" fill="#232323"/>
<path d="M49.3504 145.545V155H48.2055V146.746H48.1501L45.8419 148.278V147.115L48.2055 145.545H49.3504ZM55.0241 155.129C54.4824 155.129 53.9946 155.022 53.5606 154.806C53.1267 154.591 52.7789 154.295 52.5173 153.92C52.2557 153.544 52.1126 153.116 52.088 152.636H53.1959C53.239 153.064 53.4329 153.418 53.7776 153.698C54.1254 153.975 54.5409 154.114 55.0241 154.114C55.4118 154.114 55.7565 154.023 56.0581 153.841C56.3628 153.66 56.6014 153.41 56.7737 153.093C56.9491 152.773 57.0368 152.412 57.0368 152.009C57.0368 151.596 56.9461 151.228 56.7645 150.905C56.586 150.579 56.3398 150.322 56.0258 150.134C55.7119 149.946 55.3534 149.851 54.9502 149.848C54.6609 149.845 54.3639 149.89 54.0592 149.982C53.7545 150.071 53.5037 150.187 53.3067 150.328L52.2357 150.199L52.8081 145.545H57.7201V146.561H53.7684L53.436 149.349H53.4914C53.6853 149.196 53.9284 149.068 54.2208 148.966C54.5132 148.865 54.8179 148.814 55.1349 148.814C55.7135 148.814 56.229 148.952 56.6814 149.229C57.1369 149.503 57.4939 149.879 57.7524 150.356C58.014 150.833 58.1448 151.378 58.1448 151.99C58.1448 152.593 58.0094 153.132 57.7385 153.606C57.4708 154.077 57.1015 154.449 56.6306 154.723C56.1597 154.994 55.6242 155.129 55.0241 155.129Z" fill="#232323"/>
<path d="M48.1346 182.545V192H46.9897V183.746H46.9343L44.6261 185.278V184.115L46.9897 182.545H48.1346ZM53.9375 192.129C53.242 192.129 52.6495 191.94 52.1602 191.561C51.6708 191.18 51.2969 190.627 51.0384 189.904C50.7798 189.178 50.6506 188.301 50.6506 187.273C50.6506 186.251 50.7798 185.378 51.0384 184.655C51.3 183.929 51.6754 183.375 52.1648 182.993C52.6572 182.609 53.2481 182.416 53.9375 182.416C54.6269 182.416 55.2163 182.609 55.7056 182.993C56.198 183.375 56.5735 183.929 56.832 184.655C57.0936 185.378 57.2244 186.251 57.2244 187.273C57.2244 188.301 57.0952 189.178 56.8366 189.904C56.5781 190.627 56.2042 191.18 55.7148 191.561C55.2255 191.94 54.633 192.129 53.9375 192.129ZM53.9375 191.114C54.6269 191.114 55.1624 190.781 55.544 190.116C55.9257 189.452 56.1165 188.504 56.1165 187.273C56.1165 186.454 56.0288 185.757 55.8533 185.181C55.681 184.606 55.4317 184.167 55.1055 183.866C54.7823 183.564 54.393 183.413 53.9375 183.413C53.2543 183.413 52.7203 183.75 52.3356 184.424C51.9509 185.095 51.7585 186.045 51.7585 187.273C51.7585 188.091 51.8447 188.787 52.017 189.359C52.1894 189.932 52.4371 190.367 52.7603 190.666C53.0865 190.964 53.4789 191.114 53.9375 191.114Z" fill="#232323"/>
<path d="M52.0241 229.129C51.4824 229.129 50.9946 229.022 50.5606 228.806C50.1267 228.591 49.7789 228.295 49.5173 227.92C49.2557 227.544 49.1126 227.116 49.088 226.636H50.1959C50.239 227.064 50.4329 227.418 50.7776 227.698C51.1254 227.975 51.5409 228.114 52.0241 228.114C52.4118 228.114 52.7565 228.023 53.0581 227.841C53.3628 227.66 53.6014 227.41 53.7737 227.093C53.9491 226.773 54.0368 226.412 54.0368 226.009C54.0368 225.596 53.9461 225.228 53.7645 224.905C53.586 224.579 53.3398 224.322 53.0258 224.134C52.7119 223.946 52.3534 223.851 51.9502 223.848C51.6609 223.845 51.3639 223.89 51.0592 223.982C50.7545 224.071 50.5037 224.187 50.3067 224.328L49.2357 224.199L49.8081 219.545H54.7201V220.561H50.7684L50.436 223.349H50.4914C50.6853 223.196 50.9284 223.068 51.2208 222.966C51.5132 222.865 51.8179 222.814 52.1349 222.814C52.7135 222.814 53.229 222.952 53.6814 223.229C54.1369 223.503 54.4939 223.879 54.7524 224.356C55.014 224.833 55.1448 225.378 55.1448 225.99C55.1448 226.593 55.0094 227.132 54.7385 227.606C54.4708 228.077 54.1015 228.449 53.6306 228.723C53.1597 228.994 52.6242 229.129 52.0241 229.129Z" fill="#232323"/>
<path d="M51.9375 266.129C54.0241 266.129 55.2244 264.361 55.2244 261.273C55.2244 258.207 54.0057 256.416 51.9375 256.416C49.8693 256.416 48.6506 258.207 48.6506 261.273C48.6506 264.361 49.8509 266.129 51.9375 266.129ZM51.9375 265.114C50.5618 265.114 49.7585 263.733 49.7585 261.273C49.7585 258.817 50.571 257.413 51.9375 257.413C53.304 257.413 54.1165 258.817 54.1165 261.273C54.1165 263.733 53.3132 265.114 51.9375 265.114Z" fill="#232323"/>
<rect x="94" y="83" width="15" height="178" rx="7.5" fill="#1814F3"/>
<rect x="121" y="170" width="15" height="91" rx="7.5" fill="#16DBCC"/>
<rect x="184" y="131" width="15" height="130" rx="7.5" fill="#1814F3"/>
<rect x="211" y="212" width="15" height="49" rx="7.5" fill="#16DBCC"/>
<rect x="274" y="139" width="15" height="122" rx="7.5" fill="#1814F3"/>
<rect x="301" y="163" width="15" height="98" rx="7.5" fill="#16DBCC"/>
<rect x="364" y="83" width="15" height="178" rx="7.5" fill="#1814F3"/>
<rect x="391" y="123" width="15" height="138" rx="7.5" fill="#16DBCC"/>
<rect x="454" y="204" width="15" height="57" rx="7.5" fill="#1814F3"/>
<rect x="481" y="170" width="15" height="91" rx="7.5" fill="#16DBCC"/>
<rect x="544" y="116" width="15" height="145" rx="7.5" fill="#1814F3"/>
<rect x="571" y="170" width="15" height="91" rx="7.5" fill="#16DBCC"/>
<rect x="634" y="114" width="15" height="147" rx="7.5" fill="#1814F3"/>
<rect x="661" y="135" width="15" height="126" rx="7.5" fill="#16DBCC"/>
</svg>
