<svg width="66" height="67" viewBox="0 0 66 67" fill="none" xmlns="http://www.w3.org/2000/svg">
<mask id="mask0_627_1937" style="mask-type:alpha" maskUnits="userSpaceOnUse" x="0" y="0" width="66" height="67">
<circle cx="33" cy="33.5" r="33" fill="#C4C4C4"/>
</mask>
<g mask="url(#mask0_627_1937)">
<path d="M0 33.5C0 15.2746 14.7746 0.5 33 0.5C51.2254 0.5 66 15.2746 66 33.5C66 51.7254 51.2254 66.5 33 66.5C14.7746 66.5 0 51.7254 0 33.5Z" fill="#1C53C9"/>
</g>
<path d="M49 51.5V47.5C49 45.3783 48.1571 43.3434 46.6569 41.8431C45.1566 40.3429 43.1217 39.5 41 39.5H25C22.8783 39.5 20.8434 40.3429 19.3431 41.8431C17.8429 43.3434 17 45.3783 17 47.5V51.5M41 23.5C41 27.9183 37.4183 31.5 33 31.5C28.5817 31.5 25 27.9183 25 23.5C25 19.0817 28.5817 15.5 33 15.5C37.4183 15.5 41 19.0817 41 23.5Z" stroke="#FDFFE2" stroke-width="4" stroke-linecap="round" stroke-linejoin="round"/>
</svg>
