<svg width="324" height="320" viewBox="0 0 324 320" fill="none" xmlns="http://www.w3.org/2000/svg">
<path d="M323.254 160.25C323.254 248.339 250.948 319.75 161.754 319.75C72.5599 319.75 0.253906 248.339 0.253906 160.25C0.253906 72.1606 72.5599 0.75 161.754 0.75C250.948 0.75 323.254 72.1606 323.254 160.25Z" fill="#D9D9D9"/>
<path d="M277.254 281.75V256.083C277.254 242.469 271.17 229.412 260.339 219.785C249.509 210.158 234.82 204.75 219.504 204.75H104.004C88.6877 204.75 73.9987 210.158 63.1685 219.785C52.3383 229.412 46.2539 242.469 46.2539 256.083V281.75M219.504 102.083C219.504 130.434 193.648 153.417 161.754 153.417C129.859 153.417 104.004 130.434 104.004 102.083C104.004 73.7327 129.859 50.75 161.754 50.75C193.648 50.75 219.504 73.7327 219.504 102.083Z" stroke="#FBFCFF" stroke-width="4" stroke-linecap="round" stroke-linejoin="round"/>
<ellipse cx="281.5" cy="254.827" rx="42.2459" ry="41.0769" fill="#1C53C9"/>
<g clip-path="url(#clip0_918_1347)">
<path d="M302.868 244.32L299.064 248.019C298.677 248.396 298.049 248.396 297.662 248.019L288.503 239.113C288.115 238.736 288.115 238.127 288.503 237.75L292.307 234.051C293.85 232.551 296.358 232.551 297.909 234.051L302.868 238.873C304.419 240.373 304.419 242.812 302.868 244.32ZM285.235 240.927L263.568 261.995L261.819 271.742C261.579 273.058 262.759 274.197 264.112 273.973L274.138 272.264L295.805 251.196C296.193 250.819 296.193 250.209 295.805 249.832L286.646 240.927C286.25 240.549 285.623 240.549 285.235 240.927ZM272.025 260.189C271.572 259.748 271.572 259.042 272.025 258.601L284.732 246.246C285.186 245.804 285.912 245.804 286.366 246.246C286.82 246.687 286.82 247.393 286.366 247.834L273.659 260.189C273.205 260.631 272.479 260.631 272.025 260.189ZM269.047 266.937H273.007V269.849L267.685 270.755L265.119 268.26L266.051 263.086H269.047V266.937Z" fill="white"/>
</g>
<defs>
<clipPath id="clip0_918_1347">
<rect width="42.2459" height="41.0769" fill="white" transform="translate(261.785 232.92)"/>
</clipPath>
</defs>
</svg>
