<svg width="153" height="41" viewBox="0 0 153 41" fill="none" xmlns="http://www.w3.org/2000/svg">
<ellipse cx="19.1049" cy="19.9209" rx="16.7168" ry="16.2881" fill="url(#paint0_linear_961_1910)"/>
<path d="M25.3302 26.3914L26.0728 21.7941H21.4274V18.8121C21.4274 17.5541 22.0752 16.3271 24.1558 16.3271H26.2691V12.4132C26.2691 12.4132 24.352 12.1025 22.5201 12.1025C18.6926 12.1025 16.1933 14.3049 16.1933 18.2902V21.7941H11.9404V26.3914H16.1933V37.5056C17.0471 37.633 17.9205 37.6982 18.8103 37.6982C19.7002 37.6982 20.5736 37.633 21.4274 37.5056V26.3914H25.3302Z" fill="white"/>
<g clip-path="url(#clip0_961_1910)">
<path d="M96 19.2744C96 28.3824 88.1687 35.7744 78.5 35.7744C68.8312 35.7744 61 28.3824 61 19.2744C61 10.1582 68.8312 2.77441 78.5 2.77441C88.1687 2.77441 96 10.1582 96 19.2744Z" fill="#283544"/>
<path d="M85.6773 15.8467C85.5937 15.8926 83.6046 16.8626 83.6046 19.0131C83.6984 21.4657 86.1148 22.3258 86.1562 22.3258C86.1148 22.3717 85.7914 23.4974 84.8336 24.6774C84.0734 25.6939 83.2296 26.7187 81.9484 26.7187C80.7296 26.7187 80.2921 26.0413 78.8858 26.0413C77.3757 26.0413 76.9483 26.7187 75.7921 26.7187C74.5108 26.7187 73.6046 25.639 72.803 24.6321C71.7615 23.3142 70.8763 21.246 70.8451 19.2602C70.824 18.2079 71.0536 17.1735 71.6365 16.2949C72.4592 15.0684 73.928 14.2357 75.5319 14.2083C76.7608 14.1718 77.8546 14.9496 78.6046 14.9496C79.3234 14.9496 80.6671 14.2083 82.1875 14.2083C82.8437 14.2089 84.5937 14.3825 85.6773 15.8467ZM78.5007 13.9982C78.2819 13.0372 78.8858 12.0762 79.4484 11.4632C80.1671 10.7219 81.3023 10.2188 82.2812 10.2188C82.3437 11.1797 81.9477 12.1222 81.2398 12.8086C80.6046 13.5499 79.5109 14.108 78.5007 13.9982Z" fill="white"/>
</g>
<path d="M149.741 19.8711C149.741 18.5318 149.627 17.5545 149.381 16.541H133.36V22.5858H142.764C142.574 24.088 141.551 26.3504 139.275 27.8705L139.243 28.0729L144.309 31.8189L144.66 31.8523C147.883 29.0108 149.741 24.83 149.741 19.8711Z" fill="#4285F4"/>
<path d="M133.359 35.7977C137.966 35.7977 141.834 34.3497 144.659 31.8522L139.274 27.8704C137.834 28.8296 135.9 29.4993 133.359 29.4993C128.847 29.4993 125.017 26.6579 123.651 22.7305L123.451 22.7467L118.184 26.6379L118.115 26.8207C120.921 32.1416 126.685 35.7977 133.359 35.7977Z" fill="#34A853"/>
<path d="M123.652 22.7308C123.292 21.7173 123.084 20.6313 123.084 19.5092C123.084 18.3871 123.292 17.3012 123.633 16.2877L123.624 16.0718L118.291 12.1182L118.116 12.1974C116.96 14.4054 116.296 16.885 116.296 19.5092C116.296 22.1335 116.96 24.6129 118.116 26.8209L123.652 22.7308Z" fill="#FBBC05"/>
<path d="M133.359 9.51891C136.563 9.51891 138.725 10.8401 139.957 11.9442L144.773 7.45574C141.815 4.83147 137.966 3.2207 133.359 3.2207C126.685 3.2207 120.921 6.87656 118.115 12.1975L123.633 16.2878C125.017 12.3604 128.847 9.51891 133.359 9.51891Z" fill="#EB4335"/>
<defs>
<linearGradient id="paint0_linear_961_1910" x1="19.1049" y1="3.63281" x2="19.1049" y2="36.1124" gradientUnits="userSpaceOnUse">
<stop stop-color="#18ACFE"/>
<stop offset="1" stop-color="#0163E0"/>
</linearGradient>
<clipPath id="clip0_961_1910">
<rect width="35" height="33" fill="white" transform="translate(61 3)"/>
</clipPath>
</defs>
</svg>
