<svg width="84" height="84" viewBox="0 0 84 84" fill="none" xmlns="http://www.w3.org/2000/svg">
<circle cx="42" cy="42" r="42" fill="url(#paint0_linear_1473_1194)"/>
<path fill-rule="evenodd" clip-rule="evenodd" d="M41.984 26.5835C38.59 26.5835 35.8368 29.3404 35.8506 32.7284L35.8507 32.7335C35.8506 36.0385 38.4324 38.7201 41.6921 38.8649C41.8898 38.8512 42.0985 38.8505 42.2955 38.8648C45.5395 38.7182 48.134 36.0354 48.134 32.7335C48.134 29.3405 45.377 26.5835 41.984 26.5835ZM33.3506 32.736C33.3325 27.9586 37.2121 24.0835 41.984 24.0835C46.7577 24.0835 50.634 27.9598 50.634 32.7335C50.634 37.4078 46.9327 41.2101 42.3095 41.3661C42.2539 41.368 42.1983 41.3662 42.1429 41.3606C42.0626 41.3526 41.9425 41.3515 41.8305 41.3617C41.7789 41.3664 41.7271 41.3679 41.6753 41.3661C37.0342 41.2101 33.352 37.4072 33.3506 32.736Z" fill="#00AC4F"/>
<path fill-rule="evenodd" clip-rule="evenodd" d="M41.9751 45.2163C39.1402 45.2163 36.3715 45.9383 34.3285 47.3052L34.3258 47.307L34.3258 47.307C32.5701 48.4751 31.8584 49.8922 31.8584 51.1517C31.8584 52.4118 32.5707 53.8337 34.3277 55.0102C36.3804 56.3783 39.1415 57.0996 41.9834 57.0996C42.6738 57.0996 43.2334 57.6593 43.2334 58.3496C43.2334 59.04 42.6738 59.5996 41.9834 59.5996C38.759 59.5996 35.4873 58.7879 32.94 57.0897L32.938 57.0884C30.6625 55.5651 29.3584 53.4373 29.3584 51.1517C29.3584 48.8659 30.6629 46.7417 32.9396 45.2265C35.4798 43.5274 38.7605 42.7163 41.9751 42.7163C45.1902 42.7163 48.4715 43.5277 51.0118 45.2274C51.5856 45.6113 51.7395 46.3877 51.3556 46.9614C50.9717 47.5352 50.1954 47.6891 49.6216 47.3052C47.5786 45.9383 44.8099 45.2163 41.9751 45.2163Z" fill="#00AC4F"/>
<path d="M46.5818 51.5813L49.0125 54.012M49.0125 54.012L51.4432 56.4426M49.0125 54.012L46.626 56.3985M49.0125 54.012L51.399 51.6255" stroke="#DF0404" stroke-width="2" stroke-linecap="round"/>
<defs>
<linearGradient id="paint0_linear_1473_1194" x1="74.55" y1="2.14197e-06" x2="42" y2="84" gradientUnits="userSpaceOnUse">
<stop stop-color="#D3FFE7"/>
<stop offset="1" stop-color="#EFFFF6"/>
</linearGradient>
</defs>
</svg>
