<svg width="132" height="128" viewBox="0 0 132 128" fill="none" xmlns="http://www.w3.org/2000/svg">
<mask id="mask0_930_1500" style="mask-type:alpha" maskUnits="userSpaceOnUse" x="0" y="0" width="130" height="128">
<ellipse cx="65" cy="64.4481" rx="65" ry="63.4589" fill="#C4C4C4"/>
</mask>
<g mask="url(#mask0_930_1500)">
<rect y="-12.6787" width="130" height="164.017" fill="#A0A0A0"/>
</g>
<ellipse cx="117" cy="97.6424" rx="15" ry="14.6444" fill="#1C53C9"/>
<g clip-path="url(#clip0_930_1500)">
<path d="M124.587 93.8962L123.237 95.2148C123.099 95.3492 122.876 95.3492 122.739 95.2148L119.487 92.0399C119.349 91.9055 119.349 91.6881 119.487 91.5537L120.837 90.2351C121.385 89.7003 122.276 89.7003 122.826 90.2351L124.587 91.9541C125.138 92.489 125.138 93.3585 124.587 93.8962ZM118.326 92.6863L110.633 100.197L110.012 103.672C109.927 104.142 110.346 104.548 110.826 104.468L114.386 103.858L122.079 96.3474C122.217 96.213 122.217 95.9956 122.079 95.8612L118.827 92.6863C118.687 92.5519 118.464 92.5519 118.326 92.6863ZM113.636 99.5537C113.475 99.3964 113.475 99.1447 113.636 98.9874L118.148 94.5827C118.309 94.4254 118.567 94.4254 118.728 94.5827C118.889 94.74 118.889 94.9917 118.728 95.149L114.216 99.5537C114.055 99.7111 113.797 99.7111 113.636 99.5537ZM112.578 101.959H113.985V102.997L112.095 103.321L111.184 102.431L111.515 100.586H112.578V101.959Z" fill="white"/>
</g>
<path d="M99 103.5V94.9303C99 90.3847 97.1826 86.0252 93.9476 82.811C90.7126 79.5967 86.325 77.791 81.75 77.791H47.25C42.675 77.791 38.2874 79.5967 35.0524 82.811C31.8174 86.0252 30 90.3847 30 94.9303V103.5M81.75 43.5124C81.75 52.9781 74.0269 60.6517 64.5 60.6517C54.9731 60.6517 47.25 52.9781 47.25 43.5124C47.25 34.0466 54.9731 26.373 64.5 26.373C74.0269 26.373 81.75 34.0466 81.75 43.5124Z" stroke="#FBFCFF" stroke-width="4" stroke-linecap="round" stroke-linejoin="round"/>
<defs>
<clipPath id="clip0_930_1500">
<rect width="15" height="14.6444" fill="white" transform="translate(110 89.832)"/>
</clipPath>
</defs>
</svg>
