<svg width="100" height="100" viewBox="0 0 25 24" fill="none" xmlns="http://www.w3.org/2000/svg">
<mask id="path-1-outside-1_1363_1248" maskUnits="userSpaceOnUse" x="3.94336" y="3.69141" width="18" height="17" fill="black">
<rect fill="white" x="3.94336" y="3.69141" width="18" height="17"/>
<path fill-rule="evenodd" clip-rule="evenodd" d="M12.9114 18.9635C16.7597 18.9635 19.8794 15.9924 19.8794 12.3274C19.8794 8.66246 16.7597 5.69141 12.9114 5.69141C9.06306 5.69141 5.94336 8.66246 5.94336 12.3274C5.94336 13.7535 6.4157 15.0745 7.21953 16.1563C7.25423 16.203 7.26783 16.2623 7.25589 16.3192L6.88493 18.0883C6.85398 18.236 6.99135 18.3634 7.13624 18.3215L8.8716 17.8196C8.92772 17.8034 8.98803 17.8127 9.03727 17.8441C10.1451 18.5511 11.4777 18.9635 12.9114 18.9635Z"/>
</mask>
<path d="M8.8716 17.8196L8.51043 16.5708L8.8716 17.8196ZM9.03727 17.8441L9.73664 16.7482L9.03727 17.8441ZM6.88493 18.0883L5.6126 17.8216L6.88493 18.0883ZM7.13624 18.3215L6.77507 17.0727L6.77507 17.0727L7.13624 18.3215ZM7.21953 16.1563L8.263 15.381L7.21953 16.1563ZM7.25589 16.3192L8.52822 16.586L7.25589 16.3192ZM18.5794 12.3274C18.5794 15.2154 16.1023 17.6635 12.9114 17.6635V20.2635C17.4172 20.2635 21.1794 16.7695 21.1794 12.3274H18.5794ZM12.9114 6.99141C16.1023 6.99141 18.5794 9.4395 18.5794 12.3274H21.1794C21.1794 7.88541 17.4172 4.39141 12.9114 4.39141V6.99141ZM7.24336 12.3274C7.24336 9.4395 9.72049 6.99141 12.9114 6.99141V4.39141C8.40562 4.39141 4.64336 7.88541 4.64336 12.3274H7.24336ZM8.263 15.381C7.61717 14.5118 7.24336 13.4602 7.24336 12.3274H4.64336C4.64336 14.0469 5.21424 15.6372 6.17605 16.9317L8.263 15.381ZM8.15726 18.3551L8.52822 16.586L5.98356 16.0524L5.6126 17.8216L8.15726 18.3551ZM8.51043 16.5708L6.77507 17.0727L7.49741 19.5703L9.23277 19.0685L8.51043 16.5708ZM12.9114 17.6635C11.7293 17.6635 10.6388 17.324 9.73664 16.7482L8.33791 18.9399C9.65141 19.7782 11.2261 20.2635 12.9114 20.2635V17.6635ZM9.23277 19.0685C8.9212 19.1586 8.5961 19.1047 8.33791 18.9399L9.73664 16.7482C9.37996 16.5206 8.93424 16.4482 8.51043 16.5708L9.23277 19.0685ZM5.6126 17.8216C5.38045 18.9287 6.41071 19.8846 7.49741 19.5703L6.77507 17.0727C7.57198 16.8422 8.32751 17.5432 8.15726 18.3551L5.6126 17.8216ZM6.17605 16.9317C5.99463 16.6875 5.91719 16.369 5.98356 16.0524L8.52822 16.586C8.61847 16.1556 8.51384 15.7186 8.263 15.381L6.17605 16.9317Z" fill="#1C53C9" mask="url(#path-1-outside-1_1363_1248)"/>
<ellipse cx="9.42765" cy="12.3276" rx="0.871005" ry="0.829506" fill="#1C53C9"/>
<ellipse cx="12.912" cy="12.3276" rx="0.871004" ry="0.829506" fill="#1C53C9"/>
<ellipse cx="16.3964" cy="12.3276" rx="0.871004" ry="0.829506" fill="#1C53C9"/>
</svg>
