<svg width="90" height="80" viewBox="0 0 30 31" fill="none" xmlns="http://www.w3.org/2000/svg">
<path d="M9.84211 29.5H5C2.79086 29.5 1 27.7547 1 25.6019V13.7513C1 12.6133 1.51025 11.5322 2.39683 10.7916L12.3968 2.43845C13.8948 1.18718 16.1052 1.18718 17.6032 2.43845L27.6032 10.7916C28.4897 11.5322 29 12.6133 29 13.7513V25.6019C29 27.7547 27.2091 29.5 25 29.5H20.1579M9.84211 29.5V18.7801C9.84211 17.1655 11.1853 15.8565 12.8421 15.8565H17.1579C18.8147 15.8565 20.1579 17.1655 20.1579 18.7801V29.5M9.84211 29.5H20.1579" stroke="#1C53C9" stroke-width="1.3"/>
</svg>
