<svg width="15" height="15" viewBox="0 0 15 15" fill="none" xmlns="http://www.w3.org/2000/svg">
<path d="M14.5862 4.16089L13.2356 5.51148C13.0979 5.64917 12.8753 5.64917 12.7376 5.51148L9.48563 2.25952C9.34794 2.12183 9.34794 1.89917 9.48563 1.76147L10.8362 0.410889C11.3841 -0.136963 12.2747 -0.136963 12.8255 0.410889L14.5862 2.17163C15.137 2.71948 15.137 3.61011 14.5862 4.16089ZM8.32548 2.92163L0.632118 10.615L0.0110246 14.1746C-0.0739364 14.655 0.345009 15.071 0.825478 14.989L4.38505 14.365L12.0784 6.67163C12.2161 6.53394 12.2161 6.31128 12.0784 6.17359L8.82645 2.92163C8.68583 2.78394 8.46317 2.78394 8.32548 2.92163ZM3.63505 9.95581C3.47392 9.79468 3.47392 9.53687 3.63505 9.37573L8.14677 4.86401C8.3079 4.70288 8.56571 4.70288 8.72684 4.86401C8.88798 5.02515 8.88798 5.28296 8.72684 5.44409L4.21513 9.95581C4.05399 10.1169 3.79618 10.1169 3.63505 9.95581ZM2.57743 12.4197H3.98368V13.4832L2.09403 13.8142L1.1829 12.9031L1.51395 11.0134H2.57743V12.4197Z" fill="#1C53C9"/>
</svg>
