<svg width="75" height="75" viewBox="0 0 46 49" fill="none" xmlns="http://www.w3.org/2000/svg">
<rect x="0.0380859" y="0.0771484" width="44.9744" height="48.4969" rx="22.4872" fill="#1C53C9"/>
<path d="M33.6845 37.2956V34.288C33.6845 32.6927 33.1229 31.1627 32.1233 30.0347C31.1237 28.9066 29.7679 28.2729 28.3542 28.2729H17.6936C16.2799 28.2729 14.9241 28.9066 13.9245 30.0347C12.9249 31.1627 12.3633 32.6927 12.3633 34.288V37.2956M28.3542 16.2427C28.3542 19.5647 25.9677 22.2578 23.0239 22.2578C20.08 22.2578 17.6936 19.5647 17.6936 16.2427C17.6936 12.9206 20.08 10.2275 23.0239 10.2275C25.9677 10.2275 28.3542 12.9206 28.3542 16.2427Z" stroke="#FDFFE2" stroke-width="4" stroke-linecap="round" stroke-linejoin="round"/>
</svg>
